<svg xmlns="http://www.w3.org/2000/svg" viewBox="0 0 448 512">
  <path fill="#F05032" d="M442.7 324.5l-143.9 143.8c-8.3 8.3-21.8 8.3-30 0l-29.9-29.8 37.8-37.8c8.8 3 18.9 1 25.9-6 7-7 9.1-17.2 6-25.9l36.5-36.5c8.8 3 18.9 1 25.9-6 9.8-9.8 9.8-25.7 0-35.5-9.8-9.8-25.7-9.8-35.5 0-7 7-9 17.2-6.6 25.9l-34.1 34.1v-85.3c2.4 1.2 4.8 2.8 6.8 4.7 9.8 9.8 9.8 25.7 0 35.5-9.8 9.8-25.7 9.8-35.5 0-9.8-9.8-9.8-25.7 0-35.5 2.4-2.4 5.2-4.2 8.1-5.5v-86.1c-2.9-1.2-5.7-3-8.1-5.5-7.1-7-9.1-17.2-5.9-25.9l-37.2-37.2L117.9 170.5c-8.3 8.3-8.3 21.8 0 30l143.9 143.8c8.3 8.3 21.8 8.3 30 0l143.9-143.8c8.3-8.3 8.3-21.8 0-30-8.3-8.2-21.8-8.2-30 0z"/>
</svg>