<svg xmlns="http://www.w3.org/2000/svg" viewBox="0 0 448 512">
  <path fill="#F7DF1E" d="M0 0h448v512H0V0z"/>
  <path fill="#000" d="M400 432c-8.8 0-16-7.2-16-16v-95.6c0-8.8-7.2-16-16-16s-16 7.2-16 16V416c0 26.5 21.5 48 48 48s48-21.5 48-48v-96.1c0-8.8-7.2-16-16-16s-16 7.2-16 16V416c0 8.8-7.2 16-16 16zm-160-16c-8.8 0-16-7.2-16-16V236c0-6.6 4-12.6 10.3-14.9 6.3-2.3 13.2 0 16.7 5.5l76.2 120.2c6 9.5 21.4 5.9 21.4-5V200c0-8.8-7.2-16-16-16s-16 7.2-16 16v150.8l-60.3-95.3c-15.1-23.8-51.3-24.3-67.1-0.9-6.7 9.9-10.3 21.7-10.3 33.7v127.6c0 8.8 7.2 16 16 16s16-7.2 16-16z"/>
  <path fill="#000" d="M126.6 363.7c-5.5 6.9-14.2 11.8-31.4 11.8-16.7 0-28.4-5.9-37.7-15.4-2.5-2.5-7.1-2.5-9.6 0l-18.7 18.7c-2.5 2.5-2.5 6.7 0 9.2 16.7 17 39.1 25.9 66.1 25.9 33.4 0 56.1-13.5 67.9-33.9 11.4-19.5 10.3-45.2 10.3-45.2H145c0 0-1.2 17.5-18.4 28.9z"/>
</svg>