<svg xmlns="http://www.w3.org/2000/svg" viewBox="0 0 640 512">
  <path fill="#4A5568" d="M112 48h352v48h48V32c0-17.7-14.3-32-32-32H96C78.3 0 64 14.3 64 32v256H16c-8.8 0-16 7.2-16 16v16c0 35.3 28.7 64 64 64h512c35.3 0 64-28.7 64-64v-16c0-8.8-7.2-16-16-16H112V48zm0 416c-26.5 0-48-21.5-48-48s21.5-48 48-48 48 21.5 48 48-21.5 48-48 48zm480-48c0 26.5-21.5 48-48 48s-48-21.5-48-48 21.5-48 48-48 48 21.5 48 48zm-336-48c-26.5 0-48 21.5-48 48s21.5 48 48 48 48-21.5 48-48-21.5-48-48-48zm192 0c-26.5 0-48 21.5-48 48s21.5 48 48 48 48-21.5 48-48-21.5-48-48-48z"/>
  <path fill="#3182CE" d="M624 384h-80V256h80c8.8 0 16-7.2 16-16V80c0-8.8-7.2-16-16-16H80c-8.8 0-16 7.2-16 16v160c0 8.8 7.2 16 16 16h80v128H80c-8.8 0-16 7.2-16 16v32c0 8.8 7.2 16 16 16h544c8.8 0 16-7.2 16-16v-32c0-8.8-7.2-16-16-16zm-96-192v128H336V192h192zm-352 0v128H112V192h64z"/>
</svg>