<svg xmlns="http://www.w3.org/2000/svg" viewBox="0 0 512 512">
  <path fill="#FF6F00" d="M169.32 142.34l67.05-67.05a13.35 13.35 0 0118.9 0l168.83 168.83a13.33 13.33 0 010 18.9l-168.83 168.83a13.35 13.35 0 01-18.9 0l-168.83-168.83a13.33 13.33 0 010-18.9l101.78-101.78z"/>
  <path fill="#FF9100" d="M214.7 174.7a6.16 6.16 0 00-8.72 0l-60.75 60.75a6.16 6.16 0 000 8.72l60.75 60.75a6.16 6.16 0 008.72 0l38.01-38.01-47.37-47.37 47.36-47.36-38-38.48z"/>
  <path fill="#FFFFFF" d="M256.02 128.07h-89.95v35.98h26.99v107.94h35.98V164.05h26.99v-35.98z"/>
  <path fill="#FFFFFF" d="M341.35 272.08c-19.86 0-35.98-16.12-35.98-35.98s16.12-35.98 35.98-35.98 35.98 16.12 35.98 35.98-16.12 35.98-35.98 35.98zm0-107.94c-39.73 0-71.96 32.23-71.96 71.96s32.23 71.96 71.96 71.96 71.96-32.23 71.96-71.96-32.23-71.96-71.96-71.96z"/>
</svg>